<?xml version="1.0" encoding="utf-8"?>
<!-- Generator: Adobe Illustrator 19.0.0, SVG Export Plug-In . SVG Version: 6.00 Build 0)  -->
<svg version="1.1" id="Lager_2" xmlns="http://www.w3.org/2000/svg" xmlns:xlink="http://www.w3.org/1999/xlink" x="0px" y="0px"
	 viewBox="0 0 145.3 22" style="enable-background:new 0 0 145.3 22;" xml:space="preserve">
<style type="text/css">
	.st0{fill:#010202;stroke:#000000;stroke-width:1.7008;stroke-miterlimit:10;}
	.st1{fill:#67539E;stroke:#67539E;stroke-width:1.7008;stroke-miterlimit:10;}
</style>
<g id="XMLID_1_">
	<path id="XMLID_29_" class="st0" d="M19.5,3.4v3.2H14v14h-3.7v-14H4.8V3.4H19.5z"/>
	<path id="XMLID_31_" class="st0" d="M35.4,20.4v0.2h-4.2l-4.3-6.3h-1.5v6.3h-3.7V3.4h5.8c1.5,0,2.8,0.2,3.8,0.7
		c1,0.5,1.8,1.1,2.3,1.9c0.5,0.8,0.7,1.7,0.7,2.8c0,1.2-0.3,2.2-0.9,3.1c-0.6,0.9-1.5,1.5-2.7,2L35.4,20.4z M25.4,11.5H27
		c1.1,0,1.9-0.2,2.5-0.6c0.6-0.4,0.9-1.1,0.9-2c0-0.8-0.3-1.4-0.8-1.8c-0.5-0.4-1.3-0.6-2.2-0.6h-2.1V11.5z"/>
	<path id="XMLID_34_" class="st0" d="M47,3.4l6.2,17v0.2h-4l-1.4-4.1h-6.4l-1.4,4.1h-4v-0.2l6.2-17H47z M42.4,13.4h4.4l-2.2-6.6
		L42.4,13.4z"/>
	<path id="XMLID_37_" class="st0" d="M55.5,20.6V3.4h3.7v17.2H55.5z"/>
	<path id="XMLID_39_" class="st0" d="M66.7,17.3h7.9v3.2H63V3.4h3.7V17.3z"/>
	<path id="XMLID_41_" class="st1" d="M75.2,18.9l1.7-2.6c1.6,1,3.3,1.6,4.8,1.6c1,0,1.8-0.2,2.4-0.5c0.6-0.3,0.9-0.8,0.9-1.4
		c0-0.4-0.1-0.7-0.3-1c-0.2-0.3-0.5-0.5-1-0.7s-1.2-0.5-2.1-0.9L81,13c-1.1-0.4-2-0.9-2.7-1.3c-0.7-0.4-1.2-0.9-1.6-1.6
		C76.2,9.5,76,8.7,76,7.8c0-1.1,0.3-2,0.9-2.7c0.6-0.7,1.4-1.2,2.4-1.6c1-0.3,2-0.5,3.1-0.5c1,0,2,0.2,3.1,0.5
		c1.1,0.3,2.1,0.8,3,1.4l-1.7,2.6C86,7,85.2,6.6,84.6,6.4c-0.7-0.2-1.4-0.3-2.1-0.3c-0.8,0-1.5,0.1-1.9,0.4
		c-0.4,0.3-0.6,0.7-0.6,1.1c0,0.3,0.1,0.6,0.3,0.8c0.2,0.2,0.5,0.5,1,0.7c0.5,0.2,1.1,0.5,2,0.8l0.6,0.2c1.1,0.4,2,0.8,2.7,1.2
		s1.3,0.9,1.8,1.6c0.5,0.7,0.7,1.6,0.7,2.7c0,1.2-0.3,2.1-0.9,2.9c-0.6,0.8-1.4,1.4-2.5,1.8c-1,0.4-2.2,0.6-3.5,0.6
		C79.3,20.9,77.1,20.3,75.2,18.9z"/>
	<path id="XMLID_43_" class="st1" d="M104.5,3.4v3.2H99v14h-3.7v-14h-5.5V3.4H104.5z"/>
	<path id="XMLID_45_" class="st1" d="M109.1,19.8c-1.3-0.8-2.3-1.8-2.9-3.2c-0.7-1.4-1-2.9-1-4.7c0-2,0.4-3.6,1.2-5
		c0.8-1.3,1.9-2.3,3.2-3c1.3-0.6,2.8-1,4.4-1c1.8,0,3.4,0.4,4.7,1.1c1.3,0.8,2.3,1.8,2.9,3.2c0.6,1.4,1,2.9,1,4.7c0,2-0.4,3.6-1.2,5
		c-0.8,1.3-1.8,2.3-3.2,3c-1.3,0.6-2.8,1-4.4,1C111.9,20.9,110.4,20.6,109.1,19.8z M116.4,17.2c0.7-0.5,1.3-1.1,1.6-2
		s0.5-1.9,0.5-3.1c0-1.9-0.4-3.3-1.2-4.4c-0.8-1.1-2-1.6-3.5-1.6c-1.6,0-2.8,0.5-3.6,1.6c-0.8,1-1.2,2.5-1.2,4.3
		c0,1.9,0.4,3.3,1.2,4.4c0.8,1.1,2,1.6,3.5,1.6C114.8,17.9,115.7,17.6,116.4,17.2z"/>
	<path id="XMLID_48_" class="st1" d="M135.2,4.1c1,0.5,1.8,1.1,2.3,2s0.7,1.8,0.7,2.9c0,1.2-0.3,2.2-0.8,3.1
		c-0.5,0.9-1.3,1.6-2.4,2.1c-1,0.5-2.3,0.8-3.8,0.8H129v5.8h-3.7V3.4h6C132.9,3.4,134.2,3.6,135.2,4.1z M133.4,11.2
		c0.6-0.4,0.9-1.1,0.9-2.2c0-0.9-0.3-1.5-0.8-2s-1.3-0.7-2.2-0.7H129v5.4h1.8C132,11.8,132.8,11.6,133.4,11.2z"/>
</g>
</svg>
